<svg width="20" height="20" viewBox="0 0 20 20" fill="none" xmlns="http://www.w3.org/2000/svg">
<g id="Icon" clip-path="url(#clip0_3670_3637)">
<path id="Vector" d="M18.7832 5.34967C18.6842 4.95418 18.4826 4.59182 18.1988 4.29918C17.9149 4.00654 17.5589 3.794 17.1666 3.68301C15.7332 3.33301 9.99991 3.33301 9.99991 3.33301C9.99991 3.33301 4.26657 3.33301 2.83324 3.71634C2.44095 3.82733 2.08489 4.03987 1.80103 4.33251C1.51717 4.62515 1.31556 4.98752 1.21657 5.38301C0.954252 6.83764 0.825937 8.31327 0.83324 9.79134C0.823889 11.2805 0.952213 12.7674 1.21657 14.233C1.32571 14.6162 1.53183 14.9648 1.81503 15.2451C2.09822 15.5254 2.44892 15.7279 2.83324 15.833C4.26657 16.2163 9.99991 16.2163 9.99991 16.2163C9.99991 16.2163 15.7332 16.2163 17.1666 15.833C17.5589 15.722 17.9149 15.5095 18.1988 15.2168C18.4826 14.9242 18.6842 14.5618 18.7832 14.1663C19.0435 12.7227 19.1718 11.2583 19.1666 9.79134C19.1759 8.30214 19.0476 6.81526 18.7832 5.34967V5.34967Z" stroke="#F8FAFC" stroke-width="2" stroke-linecap="round" stroke-linejoin="round"/>
<path id="Vector_2" d="M8.125 12.5164L12.9167 9.79141L8.125 7.06641V12.5164Z" stroke="#F8FAFC" stroke-width="2" stroke-linecap="round" stroke-linejoin="round"/>
</g>
<defs>
<clipPath id="clip0_3670_3637">
<rect width="20" height="20" fill="white"/>
</clipPath>
</defs>
</svg>
